<svg width="53" height="52" viewBox="0 0 53 52" fill="none" xmlns="http://www.w3.org/2000/svg">
<path d="M21.325 36.305C20.671 34.6926 19.4767 33.3578 17.9467 32.5292C16.4167 31.7006 14.6462 31.4297 12.9384 31.763C11.2307 32.0963 9.69194 33.013 8.58576 34.356C7.47958 35.6991 6.8748 37.385 6.875 39.125C6.875 39.8953 6.7168 40.6573 6.4102 41.364C6.1036 42.0706 5.65514 42.7067 5.09261 43.2329C4.53008 43.7591 3.86547 44.1642 3.13998 44.423C2.41448 44.6818 1.64356 44.7889 0.875 44.7375C2.11112 46.8849 4.02158 48.5641 6.30981 49.5145C8.59803 50.4649 11.136 50.6333 13.5297 49.9935C15.9235 49.3538 18.039 47.9417 19.548 45.9764C21.057 44.0112 21.875 41.6028 21.875 39.125C21.875 38.1275 21.68 37.175 21.325 36.305ZM21.325 36.305C24.2975 35.2922 27.1405 33.9328 29.795 32.255M17.1875 32.1925C18.2005 29.2136 19.5616 26.3648 21.2425 23.705M29.7925 32.255C34.5334 29.2596 38.5912 25.3006 41.7025 20.635L51.3925 6.1C51.7637 5.54641 51.9312 4.88111 51.8664 4.21774C51.8016 3.55436 51.5086 2.93405 51.0373 2.46274C50.566 1.99143 49.9456 1.69835 49.2823 1.63356C48.6189 1.56878 47.9536 1.73629 47.4 2.1075L32.865 11.8C28.1988 14.9103 24.2389 18.9673 21.2425 23.7075C25.0472 25.4087 28.0913 28.4528 29.7925 32.2575" stroke="black" stroke-width="1.5" stroke-linecap="round" stroke-linejoin="round"/>
</svg>
