<svg width="39" height="52" viewBox="0 0 39 52" fill="none" xmlns="http://www.w3.org/2000/svg">
<path d="M38.25 31.625V25.0625C38.25 22.8247 37.3611 20.6786 35.7787 19.0963C34.1964 17.5139 32.0503 16.625 29.8125 16.625H26.0625C25.3166 16.625 24.6012 16.3287 24.0738 15.8012C23.5463 15.2738 23.25 14.5584 23.25 13.8125V10.0625C23.25 7.82474 22.3611 5.67862 20.7787 4.09629C19.1964 2.51395 17.0503 1.625 14.8125 1.625H10.125M19.5 24.125V39.125M27 31.625H12M15.75 1.625H3.5625C2.01 1.625 0.75 2.885 0.75 4.4375V47.5625C0.75 49.115 2.01 50.375 3.5625 50.375H35.4375C36.99 50.375 38.25 49.115 38.25 47.5625V24.125C38.25 18.1576 35.8795 12.4347 31.6599 8.2151C27.4403 3.99553 21.7174 1.625 15.75 1.625Z" stroke="black" stroke-width="1.5" stroke-linecap="round" stroke-linejoin="round"/>
</svg>
